<svg width="176" height="176" viewBox="0 0 176 176" fill="none" xmlns="http://www.w3.org/2000/svg">
<g filter="url(#filter0_d_4249_3528)">
<rect x="8" y="4" width="160" height="160" rx="24" fill="#FF6D6D"/>
<path d="M87.5305 103.93H87.5705M87.5305 73.9295V88.9295M80.4055 50.0145L45.1155 108.93C44.3884 110.19 44.0039 111.618 44 113.073C43.9962 114.528 44.3733 115.959 45.0937 117.223C45.8142 118.487 46.853 119.54 48.1068 120.278C49.3606 121.016 50.7857 121.413 52.2405 121.43H122.821C124.276 121.415 125.702 121.018 126.957 120.281C128.211 119.543 129.251 118.49 129.972 117.225C130.692 115.961 131.069 114.529 131.065 113.074C131.06 111.618 130.674 110.189 129.946 108.93L94.6605 50.0145C93.9184 48.7892 92.8727 47.7759 91.6246 47.0727C90.3765 46.3695 88.9681 46 87.5355 46C86.103 46 84.6946 46.3695 83.4465 47.0727C82.1984 47.7759 81.1527 48.7892 80.4105 50.0145" stroke="#FDFDFD" stroke-width="10" stroke-miterlimit="10" stroke-linecap="round" stroke-linejoin="round"/>
</g>
<defs>
<filter id="filter0_d_4249_3528" x="0" y="0" width="176" height="176" filterUnits="userSpaceOnUse" color-interpolation-filters="sRGB">
<feFlood flood-opacity="0" result="BackgroundImageFix"/>
<feColorMatrix in="SourceAlpha" type="matrix" values="0 0 0 0 0 0 0 0 0 0 0 0 0 0 0 0 0 0 127 0" result="hardAlpha"/>
<feOffset dy="4"/>
<feGaussianBlur stdDeviation="4"/>
<feComposite in2="hardAlpha" operator="out"/>
<feColorMatrix type="matrix" values="0 0 0 0 0.45098 0 0 0 0 0.533333 0 0 0 0 0.513726 0 0 0 0.4 0"/>
<feBlend mode="normal" in2="BackgroundImageFix" result="effect1_dropShadow_4249_3528"/>
<feBlend mode="normal" in="SourceGraphic" in2="effect1_dropShadow_4249_3528" result="shape"/>
</filter>
</defs>
</svg>
