<svg width="176" height="176" viewBox="0 0 176 176" fill="none" xmlns="http://www.w3.org/2000/svg">
<g filter="url(#filter0_d_4249_3581)">
<rect x="8" y="4" width="160" height="160" rx="24" fill="#6DBBFF"/>
<path d="M88 109C89.4167 109 90.605 108.52 91.565 107.56C92.525 106.6 93.0033 105.413 93 104V84C93 82.5833 92.52 81.3967 91.56 80.44C90.6 79.4833 89.4133 79.0033 88 79C86.5867 78.9967 85.4 79.4767 84.44 80.44C83.48 81.4033 83 82.59 83 84V104C83 105.417 83.48 106.605 84.44 107.565C85.4 108.525 86.5867 109.003 88 109ZM88 69C89.4167 69 90.605 68.52 91.565 67.56C92.525 66.6 93.0033 65.4133 93 64C92.9967 62.5867 92.5167 61.4 91.56 60.44C90.6033 59.48 89.4167 59 88 59C86.5833 59 85.3967 59.48 84.44 60.44C83.4833 61.4 83.0033 62.5867 83 64C82.9967 65.4133 83.4767 66.6017 84.44 67.565C85.4033 68.5283 86.59 69.0067 88 69ZM88 134C81.0833 134 74.5833 132.687 68.5 130.06C62.4167 127.433 57.125 123.872 52.625 119.375C48.125 114.878 44.5633 109.587 41.94 103.5C39.3167 97.4133 38.0033 90.9133 38 84C37.9967 77.0867 39.31 70.5867 41.94 64.5C44.57 58.4133 48.1317 53.1217 52.625 48.625C57.1183 44.1283 62.41 40.5667 68.5 37.94C74.59 35.3133 81.09 34 88 34C94.91 34 101.41 35.3133 107.5 37.94C113.59 40.5667 118.882 44.1283 123.375 48.625C127.868 53.1217 131.432 58.4133 134.065 64.5C136.698 70.5867 138.01 77.0867 138 84C137.99 90.9133 136.677 97.4133 134.06 103.5C131.443 109.587 127.882 114.878 123.375 119.375C118.868 123.872 113.577 127.435 107.5 130.065C101.423 132.695 94.9233 134.007 88 134ZM88 124C99.1667 124 108.625 120.125 116.375 112.375C124.125 104.625 128 95.1667 128 84C128 72.8333 124.125 63.375 116.375 55.625C108.625 47.875 99.1667 44 88 44C76.8333 44 67.375 47.875 59.625 55.625C51.875 63.375 48 72.8333 48 84C48 95.1667 51.875 104.625 59.625 112.375C67.375 120.125 76.8333 124 88 124Z" fill="#FDFDFD"/>
</g>
<defs>
<filter id="filter0_d_4249_3581" x="0" y="0" width="176" height="176" filterUnits="userSpaceOnUse" color-interpolation-filters="sRGB">
<feFlood flood-opacity="0" result="BackgroundImageFix"/>
<feColorMatrix in="SourceAlpha" type="matrix" values="0 0 0 0 0 0 0 0 0 0 0 0 0 0 0 0 0 0 127 0" result="hardAlpha"/>
<feOffset dy="4"/>
<feGaussianBlur stdDeviation="4"/>
<feComposite in2="hardAlpha" operator="out"/>
<feColorMatrix type="matrix" values="0 0 0 0 0.45098 0 0 0 0 0.533333 0 0 0 0 0.513726 0 0 0 0.4 0"/>
<feBlend mode="normal" in2="BackgroundImageFix" result="effect1_dropShadow_4249_3581"/>
<feBlend mode="normal" in="SourceGraphic" in2="effect1_dropShadow_4249_3581" result="shape"/>
</filter>
</defs>
</svg>
