<svg width="162" height="118" viewBox="0 0 162 118" fill="none" xmlns="http://www.w3.org/2000/svg">
<g filter="url(#filter0_dd_1_279)">
<rect x="15" y="5" width="132" height="88" rx="8" fill="white"/>
<g clip-path="url(#clip0_1_279)">
<path d="M54.188 81.5198V77.1844C54.188 75.526 53.1778 74.4401 51.4436 74.4401C50.5765 74.4401 49.6337 74.7263 48.9855 75.6691C48.4804 74.8778 47.7564 74.4401 46.6704 74.4401C45.9465 74.4401 45.2225 74.6589 44.6501 75.4503V74.5832H43.1348V81.5198H44.6501V77.6895C44.6501 76.4604 45.2983 75.8796 46.3085 75.8796C47.3187 75.8796 47.8237 76.5278 47.8237 77.6895V81.5198H49.339V77.6895C49.339 76.4604 50.063 75.8796 50.9974 75.8796C52.0076 75.8796 52.5127 76.5278 52.5127 77.6895V81.5198H54.188ZM76.6648 74.5832H74.2066V72.487H72.6913V74.5832H71.3192V75.9553H72.6913V79.1375C72.6913 80.7285 73.3396 81.6629 75.0737 81.6629C75.7219 81.6629 76.4459 81.4441 76.951 81.1578L76.5132 79.853C76.0755 80.1392 75.5704 80.215 75.2084 80.215C74.4844 80.215 74.1982 79.7772 74.1982 79.0617V75.9553H76.6564V74.5832H76.6648ZM89.5279 74.4316C88.6608 74.4316 88.08 74.8694 87.718 75.4418V74.5747H86.2027V81.5114H87.718V77.6053C87.718 76.452 88.2231 75.7954 89.1659 75.7954C89.4521 75.7954 89.8141 75.8712 90.1088 75.9385L90.5465 74.4906C90.2435 74.4316 89.8141 74.4316 89.5279 74.4316ZM70.0901 75.1556C69.3661 74.6505 68.3559 74.4316 67.27 74.4316C65.5358 74.4316 64.3825 75.2987 64.3825 76.6709C64.3825 77.8242 65.2496 78.4808 66.7649 78.6913L67.4889 78.767C68.2802 78.9102 68.7179 79.129 68.7179 79.491C68.7179 79.9961 68.1371 80.3581 67.1269 80.3581C66.1167 80.3581 65.3169 79.9961 64.8118 79.6341L64.0879 80.7874C64.8792 81.3683 65.9651 81.6545 67.0511 81.6545C69.0715 81.6545 70.2332 80.7117 70.2332 79.4153C70.2332 78.1862 69.2904 77.538 67.8508 77.3191L67.1269 77.2433C66.4787 77.1676 65.9736 77.0245 65.9736 76.5951C65.9736 76.09 66.4787 75.8038 67.2784 75.8038C68.1455 75.8038 69.0126 76.1658 69.4503 76.3847L70.0901 75.1556ZM110.405 74.4316C109.538 74.4316 108.957 74.8694 108.595 75.4418V74.5747H107.08V81.5114H108.595V77.6053C108.595 76.452 109.1 75.7954 110.043 75.7954C110.329 75.7954 110.691 75.8712 110.986 75.9385L111.424 74.5074C111.129 74.4316 110.7 74.4316 110.405 74.4316ZM91.0432 78.0515C91.0432 80.1476 92.4911 81.6629 94.7304 81.6629C95.7406 81.6629 96.4646 81.4441 97.1885 80.8716L96.4646 79.6426C95.8837 80.0803 95.3113 80.2908 94.6546 80.2908C93.4256 80.2908 92.5585 79.4237 92.5585 78.0515C92.5585 76.7467 93.4256 75.8796 94.6546 75.8122C95.3028 75.8122 95.8837 76.0311 96.4646 76.4604L97.1885 75.2314C96.4646 74.6505 95.7406 74.4401 94.7304 74.4401C92.4911 74.4316 91.0432 75.9553 91.0432 78.0515ZM105.06 78.0515V74.5832H103.544V75.4503C103.039 74.802 102.315 74.4401 101.372 74.4401C99.4194 74.4401 97.9041 75.9553 97.9041 78.0515C97.9041 80.1476 99.4194 81.6629 101.372 81.6629C102.383 81.6629 103.107 81.301 103.544 80.6527V81.5198H105.06V78.0515ZM99.4951 78.0515C99.4951 76.8224 100.286 75.8122 101.591 75.8122C102.82 75.8122 103.687 76.7551 103.687 78.0515C103.687 79.2806 102.82 80.2908 101.591 80.2908C100.295 80.215 99.4951 79.2721 99.4951 78.0515ZM81.3622 74.4316C79.3418 74.4316 77.8938 75.8796 77.8938 78.0431C77.8938 80.215 79.3418 81.6545 81.4379 81.6545C82.4481 81.6545 83.4583 81.3683 84.2581 80.7117L83.5341 79.6257C82.9532 80.0635 82.2293 80.3497 81.5137 80.3497C80.5709 80.3497 79.6364 79.9119 79.4176 78.6913H84.5443C84.5443 78.4724 84.5443 78.3293 84.5443 78.1104C84.6116 75.8796 83.3068 74.4316 81.3622 74.4316ZM81.3622 75.7365C82.305 75.7365 82.9532 76.3173 83.0963 77.3949H79.4849C79.628 76.4604 80.2762 75.7365 81.3622 75.7365ZM119.009 78.0515V71.8388H117.493V75.4503C116.988 74.802 116.264 74.4401 115.322 74.4401C113.368 74.4401 111.853 75.9553 111.853 78.0515C111.853 80.1476 113.368 81.6629 115.322 81.6629C116.332 81.6629 117.056 81.301 117.493 80.6527V81.5198H119.009V78.0515ZM113.444 78.0515C113.444 76.8224 114.236 75.8122 115.54 75.8122C116.769 75.8122 117.637 76.7551 117.637 78.0515C117.637 79.2806 116.769 80.2908 115.54 80.2908C114.236 80.215 113.444 79.2721 113.444 78.0515ZM62.7157 78.0515V74.5832H61.2004V75.4503C60.6953 74.802 59.9713 74.4401 59.0285 74.4401C57.0754 74.4401 55.5601 75.9553 55.5601 78.0515C55.5601 80.1476 57.0754 81.6629 59.0285 81.6629C60.0387 81.6629 60.7626 81.301 61.2004 80.6527V81.5198H62.7157V78.0515ZM57.0839 78.0515C57.0839 76.8224 57.8752 75.8122 59.18 75.8122C60.4091 75.8122 61.2762 76.7551 61.2762 78.0515C61.2762 79.2806 60.4091 80.2908 59.18 80.2908C57.8752 80.215 57.0839 79.2721 57.0839 78.0515Z" fill="black"/>
<path d="M92.348 21.9016H69.585V62.7976H92.348V21.9016Z" fill="#FF5A00"/>
<path d="M71.1002 42.3496C71.1002 34.0407 75.0063 26.6663 81.0001 21.9016C76.5889 18.4332 71.0244 16.3371 64.9549 16.3371C50.5764 16.3371 38.9424 27.9712 38.9424 42.3496C38.9424 56.728 50.5764 68.3621 64.9549 68.3621C71.0244 68.3621 76.5889 66.2659 81.0001 62.7976C74.9979 58.1002 71.1002 50.6584 71.1002 42.3496Z" fill="#EB001B"/>
<path d="M123.058 42.3496C123.058 56.728 111.424 68.3621 97.0452 68.3621C90.9757 68.3621 85.4112 66.2659 81 62.7976C87.0696 58.0244 90.8999 50.6584 90.8999 42.3496C90.8999 34.0407 86.9938 26.6663 81 21.9016C85.4028 18.4332 90.9672 16.3371 97.0368 16.3371C111.424 16.3371 123.058 28.0469 123.058 42.3496Z" fill="#F79E1B"/>
</g>
</g>
<defs>
<filter id="filter0_dd_1_279" x="0" y="0" width="162" height="118" filterUnits="userSpaceOnUse" color-interpolation-filters="sRGB">
<feFlood flood-opacity="0" result="BackgroundImageFix"/>
<feColorMatrix in="SourceAlpha" type="matrix" values="0 0 0 0 0 0 0 0 0 0 0 0 0 0 0 0 0 0 127 0" result="hardAlpha"/>
<feOffset dy="4"/>
<feGaussianBlur stdDeviation="3"/>
<feColorMatrix type="matrix" values="0 0 0 0 0 0 0 0 0 0 0 0 0 0 0 0 0 0 0.05 0"/>
<feBlend mode="normal" in2="BackgroundImageFix" result="effect1_dropShadow_1_279"/>
<feColorMatrix in="SourceAlpha" type="matrix" values="0 0 0 0 0 0 0 0 0 0 0 0 0 0 0 0 0 0 127 0" result="hardAlpha"/>
<feOffset dy="10"/>
<feGaussianBlur stdDeviation="7.5"/>
<feColorMatrix type="matrix" values="0 0 0 0 0 0 0 0 0 0 0 0 0 0 0 0 0 0 0.1 0"/>
<feBlend mode="normal" in2="effect1_dropShadow_1_279" result="effect2_dropShadow_1_279"/>
<feBlend mode="normal" in="SourceGraphic" in2="effect2_dropShadow_1_279" result="shape"/>
</filter>
<clipPath id="clip0_1_279">
<rect width="84.1155" height="65.3259" fill="white" transform="translate(38.9424 16.3371)"/>
</clipPath>
</defs>
</svg>
